<mxfile host="Electron" modified="2023-12-28T22:30:57.813Z" agent="Mozilla/5.0 (Windows NT 10.0; Win64; x64) AppleWebKit/537.36 (KHTML, like Gecko) draw.io/22.1.15 Chrome/120.0.6099.109 Electron/28.1.0 Safari/537.36" etag="lzmMntu6pfi2ga2gD-5d" version="22.1.15" type="device" pages="2">
  <diagram id="dFhs8mVD1Mx3VTczt9uj" name="Page-3">
    <mxGraphModel dx="2840" dy="1807" grid="0" gridSize="10" guides="1" tooltips="1" connect="1" arrows="1" fold="1" page="0" pageScale="1" pageWidth="1100" pageHeight="850" math="0" shadow="0">
      <root>
        <mxCell id="0" />
        <mxCell id="1" parent="0" />
        <mxCell id="ecXFfNN8VDVFKeev1rZd-3" value="Success" style="edgeStyle=orthogonalEdgeStyle;rounded=0;orthogonalLoop=1;jettySize=auto;html=1;strokeColor=#4D9900;labelBackgroundColor=default;fontSize=12;fontStyle=1" parent="1" source="ecXFfNN8VDVFKeev1rZd-1" target="ecXFfNN8VDVFKeev1rZd-2" edge="1">
          <mxGeometry x="0.012" relative="1" as="geometry">
            <mxPoint as="offset" />
          </mxGeometry>
        </mxCell>
        <mxCell id="SWymI0-ePGJuqb1pZqmX-37" style="edgeStyle=orthogonalEdgeStyle;rounded=0;orthogonalLoop=1;jettySize=auto;html=1;entryX=0;entryY=0.5;entryDx=0;entryDy=0;entryPerimeter=0;strokeColor=#FF0000;labelBackgroundColor=default;fontSize=14;fontStyle=1" parent="1" source="ecXFfNN8VDVFKeev1rZd-1" target="V6_-ngEH8_DxXB4TdXH2-2" edge="1">
          <mxGeometry relative="1" as="geometry">
            <mxPoint x="274.3809523809523" y="759.047619047619" as="targetPoint" />
            <Array as="points">
              <mxPoint x="39" y="755" />
              <mxPoint x="597" y="755" />
              <mxPoint x="597" y="865" />
            </Array>
          </mxGeometry>
        </mxCell>
        <mxCell id="SWymI0-ePGJuqb1pZqmX-41" value="Failure" style="edgeLabel;html=1;align=center;verticalAlign=middle;resizable=0;points=[];labelBackgroundColor=default;fontSize=14;fontStyle=1" parent="SWymI0-ePGJuqb1pZqmX-37" vertex="1" connectable="0">
          <mxGeometry x="-0.8943" y="-1" relative="1" as="geometry">
            <mxPoint x="1" y="48" as="offset" />
          </mxGeometry>
        </mxCell>
        <mxCell id="ecXFfNN8VDVFKeev1rZd-1" value="Lambda Function&lt;br style=&quot;font-size: 14px;&quot;&gt;InitializeProcessing" style="sketch=0;points=[[0,0,0],[0.25,0,0],[0.5,0,0],[0.75,0,0],[1,0,0],[0,1,0],[0.25,1,0],[0.5,1,0],[0.75,1,0],[1,1,0],[0,0.25,0],[0,0.5,0],[0,0.75,0],[1,0.25,0],[1,0.5,0],[1,0.75,0]];outlineConnect=0;fontColor=#232F3E;fillColor=#ED7100;strokeColor=#ffffff;dashed=0;verticalLabelPosition=bottom;verticalAlign=top;align=center;html=1;fontSize=14;fontStyle=1;aspect=fixed;shape=mxgraph.aws4.resourceIcon;resIcon=mxgraph.aws4.lambda;labelBackgroundColor=default;" parent="1" vertex="1">
          <mxGeometry y="507" width="78" height="78" as="geometry" />
        </mxCell>
        <mxCell id="SWymI0-ePGJuqb1pZqmX-1" value="StartDocumentAnalysis" style="edgeStyle=orthogonalEdgeStyle;rounded=0;orthogonalLoop=1;jettySize=auto;html=1;labelBackgroundColor=default;fontSize=12;fontStyle=1" parent="1" source="ecXFfNN8VDVFKeev1rZd-2" target="ecXFfNN8VDVFKeev1rZd-6" edge="1">
          <mxGeometry x="0.6012" relative="1" as="geometry">
            <mxPoint as="offset" />
          </mxGeometry>
        </mxCell>
        <mxCell id="SWymI0-ePGJuqb1pZqmX-6" style="edgeStyle=orthogonalEdgeStyle;rounded=0;orthogonalLoop=1;jettySize=auto;html=1;exitX=0.5;exitY=0;exitDx=0;exitDy=0;exitPerimeter=0;entryX=0;entryY=0.5;entryDx=0;entryDy=0;entryPerimeter=0;labelBackgroundColor=default;fontSize=14;fontStyle=1" parent="1" source="ecXFfNN8VDVFKeev1rZd-6" target="SWymI0-ePGJuqb1pZqmX-2" edge="1">
          <mxGeometry relative="1" as="geometry" />
        </mxCell>
        <mxCell id="SWymI0-ePGJuqb1pZqmX-7" value="/results" style="edgeLabel;html=1;align=center;verticalAlign=middle;resizable=0;points=[];labelBackgroundColor=default;fontSize=14;fontStyle=1" parent="SWymI0-ePGJuqb1pZqmX-6" vertex="1" connectable="0">
          <mxGeometry x="-0.278" y="2" relative="1" as="geometry">
            <mxPoint as="offset" />
          </mxGeometry>
        </mxCell>
        <mxCell id="SWymI0-ePGJuqb1pZqmX-11" value="Standard&lt;br style=&quot;font-size: 14px;&quot;&gt;Analysis&lt;br style=&quot;font-size: 14px;&quot;&gt;Complete" style="edgeStyle=orthogonalEdgeStyle;rounded=0;orthogonalLoop=1;jettySize=auto;html=1;labelBackgroundColor=default;fontSize=14;fontStyle=1" parent="1" source="ecXFfNN8VDVFKeev1rZd-6" target="SWymI0-ePGJuqb1pZqmX-8" edge="1">
          <mxGeometry relative="1" as="geometry" />
        </mxCell>
        <mxCell id="ecXFfNN8VDVFKeev1rZd-6" value="Amazon Textract" style="sketch=0;points=[[0,0,0],[0.25,0,0],[0.5,0,0],[0.75,0,0],[1,0,0],[0,1,0],[0.25,1,0],[0.5,1,0],[0.75,1,0],[1,1,0],[0,0.25,0],[0,0.5,0],[0,0.75,0],[1,0.25,0],[1,0.5,0],[1,0.75,0]];outlineConnect=0;fontColor=#232F3E;fillColor=#01A88D;strokeColor=#ffffff;dashed=0;verticalLabelPosition=bottom;verticalAlign=top;align=center;html=1;fontSize=14;fontStyle=1;aspect=fixed;shape=mxgraph.aws4.resourceIcon;resIcon=mxgraph.aws4.textract;labelBackgroundColor=default;" parent="1" vertex="1">
          <mxGeometry x="171" y="98" width="78" height="78" as="geometry" />
        </mxCell>
        <mxCell id="SWymI0-ePGJuqb1pZqmX-2" value="S3 Bucket&lt;br style=&quot;font-size: 14px;&quot;&gt;textractBucket" style="sketch=0;points=[[0,0,0],[0.25,0,0],[0.5,0,0],[0.75,0,0],[1,0,0],[0,1,0],[0.25,1,0],[0.5,1,0],[0.75,1,0],[1,1,0],[0,0.25,0],[0,0.5,0],[0,0.75,0],[1,0.25,0],[1,0.5,0],[1,0.75,0]];outlineConnect=0;fontColor=#232F3E;fillColor=#7AA116;strokeColor=#ffffff;dashed=0;verticalLabelPosition=bottom;verticalAlign=top;align=center;html=1;fontSize=14;fontStyle=1;aspect=fixed;shape=mxgraph.aws4.resourceIcon;resIcon=mxgraph.aws4.s3;labelBackgroundColor=default;" parent="1" vertex="1">
          <mxGeometry x="420" y="-98" width="78" height="78" as="geometry" />
        </mxCell>
        <mxCell id="SWymI0-ePGJuqb1pZqmX-5" style="edgeStyle=orthogonalEdgeStyle;rounded=0;orthogonalLoop=1;jettySize=auto;html=1;entryX=0.5;entryY=0;entryDx=0;entryDy=0;entryPerimeter=0;labelBackgroundColor=default;fontSize=14;fontStyle=1" parent="1" source="SWymI0-ePGJuqb1pZqmX-3" target="SWymI0-ePGJuqb1pZqmX-4" edge="1">
          <mxGeometry relative="1" as="geometry" />
        </mxCell>
        <mxCell id="SWymI0-ePGJuqb1pZqmX-3" value="S3 Bucket&lt;br style=&quot;font-size: 14px;&quot;&gt;InputBucket" style="sketch=0;points=[[0,0,0],[0.25,0,0],[0.5,0,0],[0.75,0,0],[1,0,0],[0,1,0],[0.25,1,0],[0.5,1,0],[0.75,1,0],[1,1,0],[0,0.25,0],[0,0.5,0],[0,0.75,0],[1,0.25,0],[1,0.5,0],[1,0.75,0]];outlineConnect=0;fontColor=#232F3E;fillColor=#7AA116;strokeColor=#ffffff;dashed=0;verticalLabelPosition=bottom;verticalAlign=top;align=center;html=1;fontSize=14;fontStyle=1;aspect=fixed;shape=mxgraph.aws4.resourceIcon;resIcon=mxgraph.aws4.s3;labelBackgroundColor=default;" parent="1" vertex="1">
          <mxGeometry x="41" y="-72" width="78" height="78" as="geometry" />
        </mxCell>
        <mxCell id="V6_-ngEH8_DxXB4TdXH2-18" style="edgeStyle=orthogonalEdgeStyle;rounded=0;orthogonalLoop=1;jettySize=auto;html=1;labelBackgroundColor=default;fontSize=14;fontStyle=1" parent="1" source="SWymI0-ePGJuqb1pZqmX-4" target="ecXFfNN8VDVFKeev1rZd-1" edge="1">
          <mxGeometry relative="1" as="geometry">
            <Array as="points">
              <mxPoint x="80" y="257" />
              <mxPoint x="39" y="257" />
            </Array>
          </mxGeometry>
        </mxCell>
        <mxCell id="SWymI0-ePGJuqb1pZqmX-4" value="EventBridge Rule&lt;br style=&quot;font-size: 14px;&quot;&gt;Object Created" style="sketch=0;points=[[0,0,0],[0.25,0,0],[0.5,0,0],[0.75,0,0],[1,0,0],[0,1,0],[0.25,1,0],[0.5,1,0],[0.75,1,0],[1,1,0],[0,0.25,0],[0,0.5,0],[0,0.75,0],[1,0.25,0],[1,0.5,0],[1,0.75,0]];outlineConnect=0;fontColor=#232F3E;fillColor=#E7157B;strokeColor=#ffffff;dashed=0;verticalLabelPosition=bottom;verticalAlign=top;align=center;html=1;fontSize=14;fontStyle=1;aspect=fixed;shape=mxgraph.aws4.resourceIcon;resIcon=mxgraph.aws4.eventbridge;labelBackgroundColor=default;" parent="1" vertex="1">
          <mxGeometry x="41" y="93" width="78" height="78" as="geometry" />
        </mxCell>
        <mxCell id="SWymI0-ePGJuqb1pZqmX-13" style="edgeStyle=orthogonalEdgeStyle;rounded=0;orthogonalLoop=1;jettySize=auto;html=1;labelBackgroundColor=default;fontSize=14;fontStyle=1" parent="1" source="SWymI0-ePGJuqb1pZqmX-8" target="SWymI0-ePGJuqb1pZqmX-12" edge="1">
          <mxGeometry relative="1" as="geometry">
            <Array as="points">
              <mxPoint x="432" y="232" />
              <mxPoint x="432" y="232" />
            </Array>
          </mxGeometry>
        </mxCell>
        <mxCell id="SWymI0-ePGJuqb1pZqmX-26" style="edgeStyle=orthogonalEdgeStyle;rounded=0;orthogonalLoop=1;jettySize=auto;html=1;strokeColor=#4D9900;labelBackgroundColor=default;fontSize=14;fontStyle=1" parent="1" source="SWymI0-ePGJuqb1pZqmX-12" edge="1">
          <mxGeometry relative="1" as="geometry">
            <mxPoint x="354" y="548" as="targetPoint" />
            <Array as="points">
              <mxPoint x="354" y="316" />
            </Array>
          </mxGeometry>
        </mxCell>
        <mxCell id="SWymI0-ePGJuqb1pZqmX-44" value="SendTaskSuccess" style="edgeLabel;html=1;align=center;verticalAlign=middle;resizable=0;points=[];labelBackgroundColor=default;fontSize=12;fontStyle=1" parent="SWymI0-ePGJuqb1pZqmX-26" vertex="1" connectable="0">
          <mxGeometry x="-0.6423" y="-1" relative="1" as="geometry">
            <mxPoint x="-17" y="34" as="offset" />
          </mxGeometry>
        </mxCell>
        <mxCell id="SWymI0-ePGJuqb1pZqmX-28" value="SendTaskSuccess" style="edgeStyle=orthogonalEdgeStyle;rounded=0;orthogonalLoop=1;jettySize=auto;html=1;strokeColor=#4D9900;labelBackgroundColor=default;fontSize=12;fontStyle=1" parent="1" source="SWymI0-ePGJuqb1pZqmX-12" edge="1">
          <mxGeometry x="0.084" relative="1" as="geometry">
            <mxPoint x="769" y="545" as="targetPoint" />
            <Array as="points">
              <mxPoint x="769" y="316" />
            </Array>
            <mxPoint as="offset" />
          </mxGeometry>
        </mxCell>
        <mxCell id="SWymI0-ePGJuqb1pZqmX-45" style="edgeStyle=orthogonalEdgeStyle;rounded=0;orthogonalLoop=1;jettySize=auto;html=1;strokeColor=#FF0000;labelBackgroundColor=default;fontSize=14;fontStyle=1" parent="1" source="SWymI0-ePGJuqb1pZqmX-12" edge="1">
          <mxGeometry relative="1" as="geometry">
            <mxPoint x="288" y="757" as="targetPoint" />
            <Array as="points">
              <mxPoint x="288" y="300" />
              <mxPoint x="288" y="753" />
            </Array>
          </mxGeometry>
        </mxCell>
        <mxCell id="SWymI0-ePGJuqb1pZqmX-46" value="SendTaskFailure" style="edgeLabel;html=1;align=center;verticalAlign=middle;resizable=0;points=[];labelBackgroundColor=default;fontSize=12;fontStyle=1" parent="SWymI0-ePGJuqb1pZqmX-45" vertex="1" connectable="0">
          <mxGeometry x="0.0901" y="-2" relative="1" as="geometry">
            <mxPoint x="-12" y="-194" as="offset" />
          </mxGeometry>
        </mxCell>
        <mxCell id="SWymI0-ePGJuqb1pZqmX-12" value="Lambda Function&lt;br style=&quot;font-size: 14px;&quot;&gt;RestartStepFunction" style="sketch=0;points=[[0,0,0],[0.25,0,0],[0.5,0,0],[0.75,0,0],[1,0,0],[0,1,0],[0.25,1,0],[0.5,1,0],[0.75,1,0],[1,1,0],[0,0.25,0],[0,0.5,0],[0,0.75,0],[1,0.25,0],[1,0.5,0],[1,0.75,0]];outlineConnect=0;fontColor=#232F3E;fillColor=#ED7100;strokeColor=#ffffff;dashed=0;verticalLabelPosition=bottom;verticalAlign=top;align=center;html=1;fontSize=14;fontStyle=1;aspect=fixed;shape=mxgraph.aws4.resourceIcon;resIcon=mxgraph.aws4.lambda;labelBackgroundColor=default;" parent="1" vertex="1">
          <mxGeometry x="420" y="277" width="78" height="78" as="geometry" />
        </mxCell>
        <mxCell id="SWymI0-ePGJuqb1pZqmX-19" value="Success" style="edgeStyle=orthogonalEdgeStyle;rounded=0;orthogonalLoop=1;jettySize=auto;html=1;strokeColor=#4D9900;labelBackgroundColor=default;fontSize=12;fontStyle=1" parent="1" source="SWymI0-ePGJuqb1pZqmX-14" target="SWymI0-ePGJuqb1pZqmX-18" edge="1">
          <mxGeometry x="-0.0004" relative="1" as="geometry">
            <mxPoint as="offset" />
          </mxGeometry>
        </mxCell>
        <mxCell id="SWymI0-ePGJuqb1pZqmX-16" style="edgeStyle=orthogonalEdgeStyle;rounded=0;orthogonalLoop=1;jettySize=auto;html=1;entryX=0;entryY=0.5;entryDx=0;entryDy=0;entryPerimeter=0;dashed=1;labelBackgroundColor=default;fontSize=14;fontStyle=1" parent="1" source="ecXFfNN8VDVFKeev1rZd-2" target="SWymI0-ePGJuqb1pZqmX-14" edge="1">
          <mxGeometry relative="1" as="geometry" />
        </mxCell>
        <mxCell id="SWymI0-ePGJuqb1pZqmX-20" value="Amazon Textract" style="sketch=0;points=[[0,0,0],[0.25,0,0],[0.5,0,0],[0.75,0,0],[1,0,0],[0,1,0],[0.25,1,0],[0.5,1,0],[0.75,1,0],[1,1,0],[0,0.25,0],[0,0.5,0],[0,0.75,0],[1,0.25,0],[1,0.5,0],[1,0.75,0]];outlineConnect=0;fontColor=#232F3E;fillColor=#01A88D;strokeColor=#ffffff;dashed=0;verticalLabelPosition=bottom;verticalAlign=top;align=center;html=1;fontSize=14;fontStyle=1;aspect=fixed;shape=mxgraph.aws4.resourceIcon;resIcon=mxgraph.aws4.textract;labelBackgroundColor=default;" parent="1" vertex="1">
          <mxGeometry x="622" y="98" width="78" height="78" as="geometry" />
        </mxCell>
        <mxCell id="SWymI0-ePGJuqb1pZqmX-21" value="Expense&lt;br style=&quot;font-size: 14px;&quot;&gt;Analysis&lt;br style=&quot;font-size: 14px;&quot;&gt;Complete" style="edgeStyle=orthogonalEdgeStyle;rounded=0;orthogonalLoop=1;jettySize=auto;html=1;entryX=1;entryY=0.5;entryDx=0;entryDy=0;entryPerimeter=0;labelBackgroundColor=default;fontSize=14;fontStyle=1" parent="1" source="SWymI0-ePGJuqb1pZqmX-20" target="SWymI0-ePGJuqb1pZqmX-8" edge="1">
          <mxGeometry relative="1" as="geometry" />
        </mxCell>
        <mxCell id="SWymI0-ePGJuqb1pZqmX-22" style="edgeStyle=orthogonalEdgeStyle;rounded=0;orthogonalLoop=1;jettySize=auto;html=1;entryX=1;entryY=0.5;entryDx=0;entryDy=0;entryPerimeter=0;labelBackgroundColor=default;fontSize=14;fontStyle=1" parent="1" source="SWymI0-ePGJuqb1pZqmX-20" target="SWymI0-ePGJuqb1pZqmX-2" edge="1">
          <mxGeometry relative="1" as="geometry">
            <Array as="points">
              <mxPoint x="695" y="-59" />
            </Array>
          </mxGeometry>
        </mxCell>
        <mxCell id="SWymI0-ePGJuqb1pZqmX-23" value="/expenseresults" style="edgeLabel;html=1;align=center;verticalAlign=middle;resizable=0;points=[];labelBackgroundColor=default;fontSize=14;fontStyle=1" parent="SWymI0-ePGJuqb1pZqmX-22" vertex="1" connectable="0">
          <mxGeometry x="-0.3559" relative="1" as="geometry">
            <mxPoint as="offset" />
          </mxGeometry>
        </mxCell>
        <mxCell id="SWymI0-ePGJuqb1pZqmX-27" style="edgeStyle=orthogonalEdgeStyle;rounded=0;orthogonalLoop=1;jettySize=auto;html=1;entryX=0.75;entryY=0;entryDx=0;entryDy=0;entryPerimeter=0;labelBackgroundColor=default;fontSize=14;fontStyle=1" parent="1" source="SWymI0-ePGJuqb1pZqmX-8" target="SWymI0-ePGJuqb1pZqmX-12" edge="1">
          <mxGeometry relative="1" as="geometry">
            <Array as="points">
              <mxPoint x="479" y="198" />
              <mxPoint x="479" y="198" />
            </Array>
          </mxGeometry>
        </mxCell>
        <mxCell id="SWymI0-ePGJuqb1pZqmX-35" value="Failure" style="edgeStyle=orthogonalEdgeStyle;rounded=0;orthogonalLoop=1;jettySize=auto;html=1;entryX=0;entryY=0.5;entryDx=0;entryDy=0;entryPerimeter=0;strokeColor=#FF0000;labelBackgroundColor=default;fontSize=14;fontStyle=1" parent="1" source="SWymI0-ePGJuqb1pZqmX-14" target="V6_-ngEH8_DxXB4TdXH2-2" edge="1">
          <mxGeometry x="-0.6529" relative="1" as="geometry">
            <Array as="points">
              <mxPoint x="432" y="755" />
              <mxPoint x="597" y="755" />
              <mxPoint x="597" y="865" />
            </Array>
            <mxPoint as="offset" />
          </mxGeometry>
        </mxCell>
        <mxCell id="SWymI0-ePGJuqb1pZqmX-36" value="Failure" style="edgeStyle=orthogonalEdgeStyle;rounded=0;orthogonalLoop=1;jettySize=auto;html=1;entryX=0;entryY=0.5;entryDx=0;entryDy=0;entryPerimeter=0;strokeColor=#FF0000;labelBackgroundColor=default;fontSize=14;fontStyle=1" parent="1" source="ecXFfNN8VDVFKeev1rZd-2" target="V6_-ngEH8_DxXB4TdXH2-2" edge="1">
          <mxGeometry x="-0.752" relative="1" as="geometry">
            <Array as="points">
              <mxPoint x="210" y="755" />
              <mxPoint x="597" y="755" />
              <mxPoint x="597" y="865" />
            </Array>
            <mxPoint as="offset" />
          </mxGeometry>
        </mxCell>
        <mxCell id="SWymI0-ePGJuqb1pZqmX-14" value="Lambda Function&lt;br style=&quot;font-size: 14px;&quot;&gt;ProcessTextractQueryResult" style="sketch=0;points=[[0,0,0],[0.25,0,0],[0.5,0,0],[0.75,0,0],[1,0,0],[0,1,0],[0.25,1,0],[0.5,1,0],[0.75,1,0],[1,1,0],[0,0.25,0],[0,0.5,0],[0,0.75,0],[1,0.25,0],[1,0.5,0],[1,0.75,0]];outlineConnect=0;fontColor=#232F3E;fillColor=#ED7100;strokeColor=#ffffff;dashed=0;verticalLabelPosition=bottom;verticalAlign=top;align=center;html=1;fontSize=14;fontStyle=1;aspect=fixed;shape=mxgraph.aws4.resourceIcon;resIcon=mxgraph.aws4.lambda;labelBackgroundColor=default;" parent="1" vertex="1">
          <mxGeometry x="393" y="507" width="78" height="78" as="geometry" />
        </mxCell>
        <mxCell id="SWymI0-ePGJuqb1pZqmX-8" value="SNS Topic&lt;br style=&quot;font-size: 14px;&quot;&gt;TextractSuccessTopic" style="sketch=0;points=[[0,0,0],[0.25,0,0],[0.5,0,0],[0.75,0,0],[1,0,0],[0,1,0],[0.25,1,0],[0.5,1,0],[0.75,1,0],[1,1,0],[0,0.25,0],[0,0.5,0],[0,0.75,0],[1,0.25,0],[1,0.5,0],[1,0.75,0]];outlineConnect=0;fontColor=#232F3E;fillColor=#E7157B;strokeColor=#ffffff;dashed=0;verticalLabelPosition=bottom;verticalAlign=top;align=center;html=1;fontSize=14;fontStyle=1;aspect=fixed;shape=mxgraph.aws4.resourceIcon;resIcon=mxgraph.aws4.sns;labelBackgroundColor=default;" parent="1" vertex="1">
          <mxGeometry x="420" y="98" width="78" height="78" as="geometry" />
        </mxCell>
        <mxCell id="ecXFfNN8VDVFKeev1rZd-2" value="Lambda Function&lt;br style=&quot;font-size: 14px;&quot;&gt;SubmitToTextract" style="sketch=0;points=[[0,0,0],[0.25,0,0],[0.5,0,0],[0.75,0,0],[1,0,0],[0,1,0],[0.25,1,0],[0.5,1,0],[0.75,1,0],[1,1,0],[0,0.25,0],[0,0.5,0],[0,0.75,0],[1,0.25,0],[1,0.5,0],[1,0.75,0]];outlineConnect=0;fontColor=#232F3E;fillColor=#ED7100;strokeColor=#ffffff;dashed=0;verticalLabelPosition=bottom;verticalAlign=top;align=center;html=1;fontSize=14;fontStyle=1;aspect=fixed;shape=mxgraph.aws4.resourceIcon;resIcon=mxgraph.aws4.lambda;labelBackgroundColor=default;" parent="1" vertex="1">
          <mxGeometry x="171" y="507" width="78" height="78" as="geometry" />
        </mxCell>
        <mxCell id="V6_-ngEH8_DxXB4TdXH2-19" value="Step Function State Machine" style="points=[[0,0],[0.25,0],[0.5,0],[0.75,0],[1,0],[1,0.25],[1,0.5],[1,0.75],[1,1],[0.75,1],[0.5,1],[0.25,1],[0,1],[0,0.75],[0,0.5],[0,0.25]];outlineConnect=0;gradientColor=none;html=1;whiteSpace=wrap;fontSize=14;fontStyle=1;container=1;pointerEvents=0;collapsible=0;recursiveResize=0;shape=mxgraph.aws4.group;grIcon=mxgraph.aws4.group_aws_step_functions_workflow;strokeColor=#CD2264;fillColor=none;verticalAlign=top;align=left;spacingLeft=30;fontColor=#CD2264;dashed=0;labelBackgroundColor=default;" parent="1" vertex="1">
          <mxGeometry x="-54" y="432" width="1288" height="547" as="geometry" />
        </mxCell>
        <mxCell id="SWymI0-ePGJuqb1pZqmX-29" value="SQS Queue&lt;br style=&quot;font-size: 14px;&quot;&gt;Success Queue" style="sketch=0;points=[[0,0,0],[0.25,0,0],[0.5,0,0],[0.75,0,0],[1,0,0],[0,1,0],[0.25,1,0],[0.5,1,0],[0.75,1,0],[1,1,0],[0,0.25,0],[0,0.5,0],[0,0.75,0],[1,0.25,0],[1,0.5,0],[1,0.75,0]];outlineConnect=0;fontColor=#232F3E;fillColor=#E7157B;strokeColor=#ffffff;dashed=0;verticalLabelPosition=bottom;verticalAlign=top;align=center;html=1;fontSize=14;fontStyle=1;aspect=fixed;shape=mxgraph.aws4.resourceIcon;resIcon=mxgraph.aws4.sqs;labelBackgroundColor=default;" parent="V6_-ngEH8_DxXB4TdXH2-19" vertex="1">
          <mxGeometry x="1141" y="246" width="78" height="78" as="geometry" />
        </mxCell>
        <mxCell id="SWymI0-ePGJuqb1pZqmX-32" value="SQS Queue&lt;br style=&quot;font-size: 14px;&quot;&gt;Failure Queue" style="sketch=0;points=[[0,0,0],[0.25,0,0],[0.5,0,0],[0.75,0,0],[1,0,0],[0,1,0],[0.25,1,0],[0.5,1,0],[0.75,1,0],[1,1,0],[0,0.25,0],[0,0.5,0],[0,0.75,0],[1,0.25,0],[1,0.5,0],[1,0.75,0]];outlineConnect=0;fontColor=#232F3E;fillColor=#E7157B;strokeColor=#ffffff;dashed=0;verticalLabelPosition=bottom;verticalAlign=top;align=center;html=1;fontSize=14;fontStyle=1;aspect=fixed;shape=mxgraph.aws4.resourceIcon;resIcon=mxgraph.aws4.sqs;labelBackgroundColor=default;" parent="V6_-ngEH8_DxXB4TdXH2-19" vertex="1">
          <mxGeometry x="1141" y="394" width="78" height="78" as="geometry" />
        </mxCell>
        <mxCell id="V6_-ngEH8_DxXB4TdXH2-23" style="edgeStyle=orthogonalEdgeStyle;rounded=0;orthogonalLoop=1;jettySize=auto;html=1;fontSize=14;fontStyle=1;labelBackgroundColor=default;" parent="V6_-ngEH8_DxXB4TdXH2-19" source="V6_-ngEH8_DxXB4TdXH2-1" target="SWymI0-ePGJuqb1pZqmX-29" edge="1">
          <mxGeometry relative="1" as="geometry" />
        </mxCell>
        <mxCell id="V6_-ngEH8_DxXB4TdXH2-2" value="Lambda Function&lt;br style=&quot;font-size: 14px;&quot;&gt;FailureFunction" style="sketch=0;points=[[0,0,0],[0.25,0,0],[0.5,0,0],[0.75,0,0],[1,0,0],[0,1,0],[0.25,1,0],[0.5,1,0],[0.75,1,0],[1,1,0],[0,0.25,0],[0,0.5,0],[0,0.75,0],[1,0.25,0],[1,0.5,0],[1,0.75,0]];outlineConnect=0;fontColor=#232F3E;fillColor=#ED7100;strokeColor=#ffffff;dashed=0;verticalLabelPosition=bottom;verticalAlign=top;align=center;html=1;fontSize=14;fontStyle=1;aspect=fixed;shape=mxgraph.aws4.resourceIcon;resIcon=mxgraph.aws4.lambda;labelBackgroundColor=default;" parent="V6_-ngEH8_DxXB4TdXH2-19" vertex="1">
          <mxGeometry x="910" y="394" width="78" height="78" as="geometry" />
        </mxCell>
        <mxCell id="V6_-ngEH8_DxXB4TdXH2-13" style="edgeStyle=orthogonalEdgeStyle;rounded=0;orthogonalLoop=1;jettySize=auto;html=1;labelBackgroundColor=default;fontSize=14;fontStyle=1" parent="V6_-ngEH8_DxXB4TdXH2-19" source="V6_-ngEH8_DxXB4TdXH2-2" target="SWymI0-ePGJuqb1pZqmX-32" edge="1">
          <mxGeometry relative="1" as="geometry" />
        </mxCell>
        <mxCell id="SWymI0-ePGJuqb1pZqmX-31" value="" style="edgeStyle=orthogonalEdgeStyle;rounded=0;orthogonalLoop=1;jettySize=auto;html=1;strokeColor=#4D9900;entryX=0;entryY=0.5;entryDx=0;entryDy=0;entryPerimeter=0;labelBackgroundColor=default;fontSize=14;fontStyle=1" parent="V6_-ngEH8_DxXB4TdXH2-19" source="SWymI0-ePGJuqb1pZqmX-24" target="V6_-ngEH8_DxXB4TdXH2-1" edge="1">
          <mxGeometry x="-0.0053" relative="1" as="geometry">
            <mxPoint x="1185" y="-81" as="targetPoint" />
            <mxPoint as="offset" />
          </mxGeometry>
        </mxCell>
        <mxCell id="F26Xjfr5bNEvS9mHJok5-3" value="Success" style="edgeLabel;html=1;align=center;verticalAlign=middle;resizable=0;points=[];fontSize=12;labelBackgroundColor=default;fontStyle=1" vertex="1" connectable="0" parent="SWymI0-ePGJuqb1pZqmX-31">
          <mxGeometry x="-0.0051" y="-1" relative="1" as="geometry">
            <mxPoint x="-1" as="offset" />
          </mxGeometry>
        </mxCell>
        <mxCell id="SWymI0-ePGJuqb1pZqmX-33" style="edgeStyle=orthogonalEdgeStyle;rounded=0;orthogonalLoop=1;jettySize=auto;html=1;entryX=0;entryY=0.5;entryDx=0;entryDy=0;entryPerimeter=0;strokeColor=#FF0000;labelBackgroundColor=default;fontSize=14;fontStyle=1" parent="V6_-ngEH8_DxXB4TdXH2-19" source="SWymI0-ePGJuqb1pZqmX-24" target="V6_-ngEH8_DxXB4TdXH2-2" edge="1">
          <mxGeometry relative="1" as="geometry">
            <Array as="points">
              <mxPoint x="999" y="323" />
              <mxPoint x="652" y="323" />
              <mxPoint x="652" y="433" />
            </Array>
          </mxGeometry>
        </mxCell>
        <mxCell id="SWymI0-ePGJuqb1pZqmX-39" value="Failure" style="edgeLabel;html=1;align=center;verticalAlign=middle;resizable=0;points=[];labelBackgroundColor=default;fontSize=14;fontStyle=1" parent="SWymI0-ePGJuqb1pZqmX-33" vertex="1" connectable="0">
          <mxGeometry x="-0.5647" y="-1" relative="1" as="geometry">
            <mxPoint x="4" y="-51" as="offset" />
          </mxGeometry>
        </mxCell>
        <mxCell id="SWymI0-ePGJuqb1pZqmX-18" value="Lambda Function&lt;br style=&quot;font-size: 14px;&quot;&gt;SubmitToTextractExpense" style="sketch=0;points=[[0,0,0],[0.25,0,0],[0.5,0,0],[0.75,0,0],[1,0,0],[0,1,0],[0.25,1,0],[0.5,1,0],[0.75,1,0],[1,1,0],[0,0.25,0],[0,0.5,0],[0,0.75,0],[1,0.25,0],[1,0.5,0],[1,0.75,0]];outlineConnect=0;fontColor=#232F3E;fillColor=#ED7100;strokeColor=#ffffff;dashed=0;verticalLabelPosition=bottom;verticalAlign=top;align=center;html=1;fontSize=14;fontStyle=1;aspect=fixed;shape=mxgraph.aws4.resourceIcon;resIcon=mxgraph.aws4.lambda;labelBackgroundColor=default;" parent="V6_-ngEH8_DxXB4TdXH2-19" vertex="1">
          <mxGeometry x="676" y="74" width="78" height="78" as="geometry" />
        </mxCell>
        <mxCell id="SWymI0-ePGJuqb1pZqmX-25" value="" style="edgeStyle=orthogonalEdgeStyle;rounded=0;orthogonalLoop=1;jettySize=auto;html=1;dashed=1;labelBackgroundColor=default;fontSize=14;fontStyle=1" parent="V6_-ngEH8_DxXB4TdXH2-19" source="SWymI0-ePGJuqb1pZqmX-18" target="SWymI0-ePGJuqb1pZqmX-24" edge="1">
          <mxGeometry relative="1" as="geometry" />
        </mxCell>
        <mxCell id="SWymI0-ePGJuqb1pZqmX-34" style="edgeStyle=orthogonalEdgeStyle;rounded=0;orthogonalLoop=1;jettySize=auto;html=1;entryX=0;entryY=0.5;entryDx=0;entryDy=0;entryPerimeter=0;strokeColor=#FF0000;labelBackgroundColor=default;fontSize=14;fontStyle=1" parent="V6_-ngEH8_DxXB4TdXH2-19" source="SWymI0-ePGJuqb1pZqmX-18" target="V6_-ngEH8_DxXB4TdXH2-2" edge="1">
          <mxGeometry relative="1" as="geometry">
            <Array as="points">
              <mxPoint x="712" y="323" />
              <mxPoint x="652" y="323" />
              <mxPoint x="652" y="433" />
            </Array>
          </mxGeometry>
        </mxCell>
        <mxCell id="SWymI0-ePGJuqb1pZqmX-38" value="Failure" style="edgeLabel;html=1;align=center;verticalAlign=middle;resizable=0;points=[];labelBackgroundColor=default;fontSize=14;fontStyle=1" parent="SWymI0-ePGJuqb1pZqmX-34" vertex="1" connectable="0">
          <mxGeometry x="-0.7495" relative="1" as="geometry">
            <mxPoint x="1" y="51" as="offset" />
          </mxGeometry>
        </mxCell>
        <mxCell id="SWymI0-ePGJuqb1pZqmX-24" value="Lambda Function&lt;br style=&quot;border-color: var(--border-color); font-size: 14px;&quot;&gt;ProcessTextractExpenseResults" style="sketch=0;points=[[0,0,0],[0.25,0,0],[0.5,0,0],[0.75,0,0],[1,0,0],[0,1,0],[0.25,1,0],[0.5,1,0],[0.75,1,0],[1,1,0],[0,0.25,0],[0,0.5,0],[0,0.75,0],[1,0.25,0],[1,0.5,0],[1,0.75,0]];outlineConnect=0;fontColor=#232F3E;fillColor=#ED7100;strokeColor=#ffffff;dashed=0;verticalLabelPosition=bottom;verticalAlign=top;align=center;html=1;fontSize=14;fontStyle=1;aspect=fixed;shape=mxgraph.aws4.resourceIcon;resIcon=mxgraph.aws4.lambda;labelBackgroundColor=default;" parent="V6_-ngEH8_DxXB4TdXH2-19" vertex="1">
          <mxGeometry x="960" y="74" width="78" height="78" as="geometry" />
        </mxCell>
        <mxCell id="V6_-ngEH8_DxXB4TdXH2-1" value="Lambda Function&lt;br style=&quot;font-size: 14px;&quot;&gt;SuccessFunction" style="sketch=0;points=[[0,0,0],[0.25,0,0],[0.5,0,0],[0.75,0,0],[1,0,0],[0,1,0],[0.25,1,0],[0.5,1,0],[0.75,1,0],[1,1,0],[0,0.25,0],[0,0.5,0],[0,0.75,0],[1,0.25,0],[1,0.5,0],[1,0.75,0]];outlineConnect=0;fontColor=#232F3E;fillColor=#ED7100;strokeColor=#ffffff;dashed=0;verticalLabelPosition=bottom;verticalAlign=top;align=center;html=1;fontSize=14;fontStyle=1;aspect=fixed;shape=mxgraph.aws4.resourceIcon;resIcon=mxgraph.aws4.lambda;labelBackgroundColor=default;" parent="V6_-ngEH8_DxXB4TdXH2-19" vertex="1">
          <mxGeometry x="1141" y="75" width="78" height="78" as="geometry" />
        </mxCell>
        <mxCell id="V6_-ngEH8_DxXB4TdXH2-22" value="Submit for&lt;br style=&quot;font-size: 14px;&quot;&gt;Processng" style="sketch=0;pointerEvents=1;shadow=0;dashed=0;html=1;strokeColor=none;fillColor=#505050;labelPosition=center;verticalLabelPosition=bottom;verticalAlign=top;outlineConnect=0;align=center;shape=mxgraph.office.concepts.document;fontSize=14;fontStyle=1;labelBackgroundColor=default;" parent="1" vertex="1">
          <mxGeometry x="-95" y="-77" width="69" height="88" as="geometry" />
        </mxCell>
        <mxCell id="V6_-ngEH8_DxXB4TdXH2-26" style="edgeStyle=orthogonalEdgeStyle;rounded=0;orthogonalLoop=1;jettySize=auto;html=1;fontSize=14;fontStyle=1;labelBackgroundColor=default;" parent="1" source="SWymI0-ePGJuqb1pZqmX-29" target="V6_-ngEH8_DxXB4TdXH2-25" edge="1">
          <mxGeometry relative="1" as="geometry">
            <Array as="points">
              <mxPoint x="1269" y="717" />
            </Array>
          </mxGeometry>
        </mxCell>
        <mxCell id="V6_-ngEH8_DxXB4TdXH2-27" style="edgeStyle=orthogonalEdgeStyle;rounded=0;orthogonalLoop=1;jettySize=auto;html=1;fontSize=14;fontStyle=1;labelBackgroundColor=default;" parent="1" source="SWymI0-ePGJuqb1pZqmX-32" target="V6_-ngEH8_DxXB4TdXH2-25" edge="1">
          <mxGeometry relative="1" as="geometry">
            <Array as="points">
              <mxPoint x="1289" y="865" />
            </Array>
          </mxGeometry>
        </mxCell>
        <mxCell id="V6_-ngEH8_DxXB4TdXH2-25" value="Client" style="sketch=0;outlineConnect=0;fontColor=#232F3E;gradientColor=none;fillColor=#232F3D;strokeColor=none;dashed=0;verticalLabelPosition=bottom;verticalAlign=top;align=center;html=1;fontSize=14;fontStyle=1;aspect=fixed;pointerEvents=1;shape=mxgraph.aws4.traditional_server;labelBackgroundColor=default;" parent="1" vertex="1">
          <mxGeometry x="1258" y="211" width="45" height="78" as="geometry" />
        </mxCell>
        <mxCell id="V6_-ngEH8_DxXB4TdXH2-28" style="edgeStyle=orthogonalEdgeStyle;rounded=0;orthogonalLoop=1;jettySize=auto;html=1;entryX=0;entryY=0.5;entryDx=0;entryDy=0;entryPerimeter=0;fontSize=14;fontStyle=1;labelBackgroundColor=default;" parent="1" source="V6_-ngEH8_DxXB4TdXH2-22" target="SWymI0-ePGJuqb1pZqmX-3" edge="1">
          <mxGeometry relative="1" as="geometry" />
        </mxCell>
        <mxCell id="V6_-ngEH8_DxXB4TdXH2-29" style="edgeStyle=orthogonalEdgeStyle;rounded=0;orthogonalLoop=1;jettySize=auto;html=1;strokeColor=#FF0000;labelBackgroundColor=default;exitX=1;exitY=0.25;exitDx=0;exitDy=0;exitPerimeter=0;fontSize=14;fontStyle=1" parent="1" source="SWymI0-ePGJuqb1pZqmX-12" edge="1">
          <mxGeometry relative="1" as="geometry">
            <mxPoint x="828" y="754" as="targetPoint" />
            <Array as="points">
              <mxPoint x="828" y="297" />
              <mxPoint x="828" y="754" />
            </Array>
            <mxPoint x="634" y="954" as="sourcePoint" />
          </mxGeometry>
        </mxCell>
        <mxCell id="V6_-ngEH8_DxXB4TdXH2-30" value="SendTaskFailure" style="edgeLabel;html=1;align=center;verticalAlign=middle;resizable=0;points=[];labelBackgroundColor=default;fontSize=12;fontStyle=1" parent="V6_-ngEH8_DxXB4TdXH2-29" vertex="1" connectable="0">
          <mxGeometry x="0.0901" y="-2" relative="1" as="geometry">
            <mxPoint x="18" y="-104" as="offset" />
          </mxGeometry>
        </mxCell>
        <mxCell id="V6_-ngEH8_DxXB4TdXH2-31" value="StartDocumentAnalysis" style="edgeStyle=orthogonalEdgeStyle;rounded=0;orthogonalLoop=1;jettySize=auto;html=1;entryX=0.5;entryY=1;entryDx=0;entryDy=0;entryPerimeter=0;fontSize=14;fontStyle=1;labelBackgroundColor=default;" parent="1" source="SWymI0-ePGJuqb1pZqmX-18" target="SWymI0-ePGJuqb1pZqmX-20" edge="1">
          <mxGeometry x="-0.2931" relative="1" as="geometry">
            <mxPoint as="offset" />
          </mxGeometry>
        </mxCell>
        <mxCell id="F26Xjfr5bNEvS9mHJok5-4" value="DynamoDB Table&lt;br style=&quot;font-size: 14px;&quot;&gt;QueryData" style="sketch=0;points=[[0,0,0],[0.25,0,0],[0.5,0,0],[0.75,0,0],[1,0,0],[0,1,0],[0.25,1,0],[0.5,1,0],[0.75,1,0],[1,1,0],[0,0.25,0],[0,0.5,0],[0,0.75,0],[1,0.25,0],[1,0.5,0],[1,0.75,0]];outlineConnect=0;fontColor=#232F3E;fillColor=#C925D1;strokeColor=#ffffff;dashed=0;verticalLabelPosition=bottom;verticalAlign=top;align=center;html=1;fontSize=14;fontStyle=1;aspect=fixed;shape=mxgraph.aws4.resourceIcon;resIcon=mxgraph.aws4.dynamodb;" vertex="1" parent="1">
          <mxGeometry x="884" y="-38" width="78" height="78" as="geometry" />
        </mxCell>
        <mxCell id="F26Xjfr5bNEvS9mHJok5-5" value="DynamoDB Table&lt;br style=&quot;font-size: 14px;&quot;&gt;ProcessData" style="sketch=0;points=[[0,0,0],[0.25,0,0],[0.5,0,0],[0.75,0,0],[1,0,0],[0,1,0],[0.25,1,0],[0.5,1,0],[0.75,1,0],[1,1,0],[0,0.25,0],[0,0.5,0],[0,0.75,0],[1,0.25,0],[1,0.5,0],[1,0.75,0]];outlineConnect=0;fontColor=#232F3E;fillColor=#C925D1;strokeColor=#ffffff;dashed=0;verticalLabelPosition=bottom;verticalAlign=top;align=center;html=1;fontSize=14;fontStyle=1;aspect=fixed;shape=mxgraph.aws4.resourceIcon;resIcon=mxgraph.aws4.dynamodb;" vertex="1" parent="1">
          <mxGeometry x="1041" y="-38" width="78" height="78" as="geometry" />
        </mxCell>
      </root>
    </mxGraphModel>
  </diagram>
  <diagram name="Initial" id="XvJgtY_bw6darQNVj4II">
    <mxGraphModel dx="1431" dy="876" grid="0" gridSize="10" guides="1" tooltips="1" connect="1" arrows="1" fold="1" page="0" pageScale="1" pageWidth="1400" pageHeight="850" math="0" shadow="0">
      <root>
        <mxCell id="0" />
        <mxCell id="1" parent="0" />
        <mxCell id="r3aRXXPwxVv9RhWIMnl7-1" value="AWS Step Functions workflow" style="points=[[0,0],[0.25,0],[0.5,0],[0.75,0],[1,0],[1,0.25],[1,0.5],[1,0.75],[1,1],[0.75,1],[0.5,1],[0.25,1],[0,1],[0,0.75],[0,0.5],[0,0.25]];outlineConnect=0;gradientColor=none;html=1;whiteSpace=wrap;fontSize=12;fontStyle=0;container=1;pointerEvents=0;collapsible=0;recursiveResize=0;shape=mxgraph.aws4.group;grIcon=mxgraph.aws4.group_aws_step_functions_workflow;strokeColor=#CD2264;fillColor=none;verticalAlign=top;align=left;spacingLeft=30;fontColor=#CD2264;dashed=0;" parent="1" vertex="1">
          <mxGeometry x="135" y="258" width="512" height="716" as="geometry" />
        </mxCell>
        <mxCell id="r3aRXXPwxVv9RhWIMnl7-30" style="edgeStyle=orthogonalEdgeStyle;rounded=0;orthogonalLoop=1;jettySize=auto;html=1;entryX=0.485;entryY=0.148;entryDx=0;entryDy=0;entryPerimeter=0;" parent="r3aRXXPwxVv9RhWIMnl7-1" source="r3aRXXPwxVv9RhWIMnl7-26" target="r3aRXXPwxVv9RhWIMnl7-29" edge="1">
          <mxGeometry relative="1" as="geometry" />
        </mxCell>
        <mxCell id="r3aRXXPwxVv9RhWIMnl7-26" value="Initialize" style="sketch=0;points=[[0,0,0],[0.25,0,0],[0.5,0,0],[0.75,0,0],[1,0,0],[0,1,0],[0.25,1,0],[0.5,1,0],[0.75,1,0],[1,1,0],[0,0.25,0],[0,0.5,0],[0,0.75,0],[1,0.25,0],[1,0.5,0],[1,0.75,0]];outlineConnect=0;fontColor=#232F3E;gradientColor=#F78E04;gradientDirection=north;fillColor=#D05C17;strokeColor=#ffffff;dashed=0;verticalLabelPosition=bottom;verticalAlign=top;align=center;html=1;fontSize=12;fontStyle=0;aspect=fixed;shape=mxgraph.aws4.resourceIcon;resIcon=mxgraph.aws4.lambda;" parent="r3aRXXPwxVv9RhWIMnl7-1" vertex="1">
          <mxGeometry x="203.5" y="51" width="50" height="50" as="geometry" />
        </mxCell>
        <mxCell id="r3aRXXPwxVv9RhWIMnl7-33" style="edgeStyle=orthogonalEdgeStyle;rounded=0;orthogonalLoop=1;jettySize=auto;html=1;" parent="r3aRXXPwxVv9RhWIMnl7-1" source="r3aRXXPwxVv9RhWIMnl7-28" target="r3aRXXPwxVv9RhWIMnl7-32" edge="1">
          <mxGeometry relative="1" as="geometry" />
        </mxCell>
        <mxCell id="r3aRXXPwxVv9RhWIMnl7-28" value="Convert to&lt;br&gt;PDF" style="sketch=0;points=[[0,0,0],[0.25,0,0],[0.5,0,0],[0.75,0,0],[1,0,0],[0,1,0],[0.25,1,0],[0.5,1,0],[0.75,1,0],[1,1,0],[0,0.25,0],[0,0.5,0],[0,0.75,0],[1,0.25,0],[1,0.5,0],[1,0.75,0]];outlineConnect=0;fontColor=#232F3E;gradientColor=#F78E04;gradientDirection=north;fillColor=#D05C17;strokeColor=#ffffff;dashed=0;verticalLabelPosition=bottom;verticalAlign=top;align=center;html=1;fontSize=12;fontStyle=0;aspect=fixed;shape=mxgraph.aws4.resourceIcon;resIcon=mxgraph.aws4.lambda;" parent="r3aRXXPwxVv9RhWIMnl7-1" vertex="1">
          <mxGeometry x="84" y="177.5" width="50" height="50" as="geometry" />
        </mxCell>
        <mxCell id="r3aRXXPwxVv9RhWIMnl7-31" style="edgeStyle=orthogonalEdgeStyle;rounded=0;orthogonalLoop=1;jettySize=auto;html=1;" parent="r3aRXXPwxVv9RhWIMnl7-1" source="r3aRXXPwxVv9RhWIMnl7-29" target="r3aRXXPwxVv9RhWIMnl7-28" edge="1">
          <mxGeometry relative="1" as="geometry" />
        </mxCell>
        <mxCell id="r3aRXXPwxVv9RhWIMnl7-38" style="edgeStyle=orthogonalEdgeStyle;rounded=0;orthogonalLoop=1;jettySize=auto;html=1;" parent="r3aRXXPwxVv9RhWIMnl7-1" source="r3aRXXPwxVv9RhWIMnl7-29" target="r3aRXXPwxVv9RhWIMnl7-36" edge="1">
          <mxGeometry relative="1" as="geometry" />
        </mxCell>
        <mxCell id="r3aRXXPwxVv9RhWIMnl7-29" value="Is PDF?" style="strokeWidth=2;html=1;shape=mxgraph.flowchart.decision;whiteSpace=wrap;" parent="r3aRXXPwxVv9RhWIMnl7-1" vertex="1">
          <mxGeometry x="180.5" y="175" width="100" height="55" as="geometry" />
        </mxCell>
        <mxCell id="r3aRXXPwxVv9RhWIMnl7-35" value="No" style="edgeStyle=orthogonalEdgeStyle;rounded=0;orthogonalLoop=1;jettySize=auto;html=1;entryX=0.5;entryY=0;entryDx=0;entryDy=0;" parent="r3aRXXPwxVv9RhWIMnl7-1" source="r3aRXXPwxVv9RhWIMnl7-32" target="r3aRXXPwxVv9RhWIMnl7-34" edge="1">
          <mxGeometry relative="1" as="geometry" />
        </mxCell>
        <mxCell id="r3aRXXPwxVv9RhWIMnl7-39" style="edgeStyle=orthogonalEdgeStyle;rounded=0;orthogonalLoop=1;jettySize=auto;html=1;" parent="r3aRXXPwxVv9RhWIMnl7-1" target="r3aRXXPwxVv9RhWIMnl7-36" edge="1">
          <mxGeometry relative="1" as="geometry">
            <mxPoint x="154" y="314" as="sourcePoint" />
            <mxPoint x="209" y="314" as="targetPoint" />
          </mxGeometry>
        </mxCell>
        <mxCell id="r3aRXXPwxVv9RhWIMnl7-32" value="Success" style="strokeWidth=2;html=1;shape=mxgraph.flowchart.decision;whiteSpace=wrap;" parent="r3aRXXPwxVv9RhWIMnl7-1" vertex="1">
          <mxGeometry x="59" y="286.5" width="100" height="55" as="geometry" />
        </mxCell>
        <mxCell id="r3aRXXPwxVv9RhWIMnl7-34" value="Dispatch&lt;br&gt;Error" style="rounded=0;whiteSpace=wrap;html=1;" parent="r3aRXXPwxVv9RhWIMnl7-1" vertex="1">
          <mxGeometry x="67" y="545" width="84" height="42" as="geometry" />
        </mxCell>
        <mxCell id="r3aRXXPwxVv9RhWIMnl7-36" value="Submit to Textract" style="sketch=0;points=[[0,0,0],[0.25,0,0],[0.5,0,0],[0.75,0,0],[1,0,0],[0,1,0],[0.25,1,0],[0.5,1,0],[0.75,1,0],[1,1,0],[0,0.25,0],[0,0.5,0],[0,0.75,0],[1,0.25,0],[1,0.5,0],[1,0.75,0]];outlineConnect=0;fontColor=#232F3E;gradientColor=#F78E04;gradientDirection=north;fillColor=#D05C17;strokeColor=#ffffff;dashed=0;verticalLabelPosition=bottom;verticalAlign=top;align=center;html=1;fontSize=12;fontStyle=0;aspect=fixed;shape=mxgraph.aws4.resourceIcon;resIcon=mxgraph.aws4.lambda;" parent="r3aRXXPwxVv9RhWIMnl7-1" vertex="1">
          <mxGeometry x="206" y="289" width="50" height="50" as="geometry" />
        </mxCell>
        <mxCell id="7qidpuP8_tDN-BRGHvdU-9" style="edgeStyle=orthogonalEdgeStyle;rounded=0;orthogonalLoop=1;jettySize=auto;html=1;" parent="r3aRXXPwxVv9RhWIMnl7-1" edge="1">
          <mxGeometry relative="1" as="geometry">
            <mxPoint x="232.5" y="458" as="sourcePoint" />
            <mxPoint x="230.5" y="487" as="targetPoint" />
          </mxGeometry>
        </mxCell>
        <mxCell id="7qidpuP8_tDN-BRGHvdU-4" value="Resume&lt;br&gt;Workflow&lt;br&gt;Success" style="rounded=0;whiteSpace=wrap;html=1;" parent="r3aRXXPwxVv9RhWIMnl7-1" vertex="1">
          <mxGeometry x="190" y="398" width="81" height="60" as="geometry" />
        </mxCell>
        <mxCell id="7qidpuP8_tDN-BRGHvdU-7" value="Process&lt;br&gt;Textract Results" style="sketch=0;points=[[0,0,0],[0.25,0,0],[0.5,0,0],[0.75,0,0],[1,0,0],[0,1,0],[0.25,1,0],[0.5,1,0],[0.75,1,0],[1,1,0],[0,0.25,0],[0,0.5,0],[0,0.75,0],[1,0.25,0],[1,0.5,0],[1,0.75,0]];outlineConnect=0;fontColor=#232F3E;gradientColor=#F78E04;gradientDirection=north;fillColor=#D05C17;strokeColor=#ffffff;dashed=0;verticalLabelPosition=bottom;verticalAlign=top;align=center;html=1;fontSize=12;fontStyle=0;aspect=fixed;shape=mxgraph.aws4.resourceIcon;resIcon=mxgraph.aws4.lambda;" parent="r3aRXXPwxVv9RhWIMnl7-1" vertex="1">
          <mxGeometry x="203.5" y="487" width="50" height="50" as="geometry" />
        </mxCell>
        <mxCell id="r3aRXXPwxVv9RhWIMnl7-45" value="Get&lt;br&gt;Query&lt;br&gt;Data" style="edgeStyle=orthogonalEdgeStyle;rounded=0;orthogonalLoop=1;jettySize=auto;html=1;" parent="1" source="r3aRXXPwxVv9RhWIMnl7-2" target="r3aRXXPwxVv9RhWIMnl7-36" edge="1">
          <mxGeometry x="0.3233" relative="1" as="geometry">
            <Array as="points">
              <mxPoint x="701" y="581" />
            </Array>
            <mxPoint as="offset" />
          </mxGeometry>
        </mxCell>
        <mxCell id="r3aRXXPwxVv9RhWIMnl7-2" value="Config Table" style="sketch=0;points=[[0,0,0],[0.25,0,0],[0.5,0,0],[0.75,0,0],[1,0,0],[0,1,0],[0.25,1,0],[0.5,1,0],[0.75,1,0],[1,1,0],[0,0.25,0],[0,0.5,0],[0,0.75,0],[1,0.25,0],[1,0.5,0],[1,0.75,0]];outlineConnect=0;fontColor=#232F3E;gradientColor=#4D72F3;gradientDirection=north;fillColor=#3334B9;strokeColor=#ffffff;dashed=0;verticalLabelPosition=bottom;verticalAlign=top;align=center;html=1;fontSize=12;fontStyle=0;aspect=fixed;shape=mxgraph.aws4.resourceIcon;resIcon=mxgraph.aws4.dynamodb;" parent="1" vertex="1">
          <mxGeometry x="676" y="602" width="50" height="50" as="geometry" />
        </mxCell>
        <mxCell id="r3aRXXPwxVv9RhWIMnl7-3" value="Data Table" style="sketch=0;points=[[0,0,0],[0.25,0,0],[0.5,0,0],[0.75,0,0],[1,0,0],[0,1,0],[0.25,1,0],[0.5,1,0],[0.75,1,0],[1,1,0],[0,0.25,0],[0,0.5,0],[0,0.75,0],[1,0.25,0],[1,0.5,0],[1,0.75,0]];outlineConnect=0;fontColor=#232F3E;gradientColor=#4D72F3;gradientDirection=north;fillColor=#3334B9;strokeColor=#ffffff;dashed=0;verticalLabelPosition=bottom;verticalAlign=top;align=center;html=1;fontSize=12;fontStyle=0;aspect=fixed;shape=mxgraph.aws4.resourceIcon;resIcon=mxgraph.aws4.dynamodb;" parent="1" vertex="1">
          <mxGeometry x="68" y="380" width="50" height="50" as="geometry" />
        </mxCell>
        <mxCell id="r3aRXXPwxVv9RhWIMnl7-8" style="edgeStyle=orthogonalEdgeStyle;rounded=0;orthogonalLoop=1;jettySize=auto;html=1;" parent="1" source="r3aRXXPwxVv9RhWIMnl7-4" target="r3aRXXPwxVv9RhWIMnl7-7" edge="1">
          <mxGeometry relative="1" as="geometry" />
        </mxCell>
        <mxCell id="r3aRXXPwxVv9RhWIMnl7-4" value="Input Bucket" style="sketch=0;points=[[0,0,0],[0.25,0,0],[0.5,0,0],[0.75,0,0],[1,0,0],[0,1,0],[0.25,1,0],[0.5,1,0],[0.75,1,0],[1,1,0],[0,0.25,0],[0,0.5,0],[0,0.75,0],[1,0.25,0],[1,0.5,0],[1,0.75,0]];outlineConnect=0;fontColor=#232F3E;gradientColor=#60A337;gradientDirection=north;fillColor=#277116;strokeColor=#ffffff;dashed=0;verticalLabelPosition=bottom;verticalAlign=top;align=center;html=1;fontSize=12;fontStyle=0;aspect=fixed;shape=mxgraph.aws4.resourceIcon;resIcon=mxgraph.aws4.s3;" parent="1" vertex="1">
          <mxGeometry x="146" y="65" width="54" height="54" as="geometry" />
        </mxCell>
        <mxCell id="r3aRXXPwxVv9RhWIMnl7-5" value="Success&lt;br&gt;Queue" style="sketch=0;points=[[0,0,0],[0.25,0,0],[0.5,0,0],[0.75,0,0],[1,0,0],[0,1,0],[0.25,1,0],[0.5,1,0],[0.75,1,0],[1,1,0],[0,0.25,0],[0,0.5,0],[0,0.75,0],[1,0.25,0],[1,0.5,0],[1,0.75,0]];outlineConnect=0;fontColor=#232F3E;gradientColor=#FF4F8B;gradientDirection=north;fillColor=#BC1356;strokeColor=#ffffff;dashed=0;verticalLabelPosition=bottom;verticalAlign=top;align=center;html=1;fontSize=12;fontStyle=0;aspect=fixed;shape=mxgraph.aws4.resourceIcon;resIcon=mxgraph.aws4.sqs;" parent="1" vertex="1">
          <mxGeometry x="678" y="1027" width="50" height="50" as="geometry" />
        </mxCell>
        <mxCell id="r3aRXXPwxVv9RhWIMnl7-6" value="Failure&lt;br&gt;Queue" style="sketch=0;points=[[0,0,0],[0.25,0,0],[0.5,0,0],[0.75,0,0],[1,0,0],[0,1,0],[0.25,1,0],[0.5,1,0],[0.75,1,0],[1,1,0],[0,0.25,0],[0,0.5,0],[0,0.75,0],[1,0.25,0],[1,0.5,0],[1,0.75,0]];outlineConnect=0;fontColor=#232F3E;gradientColor=#FF4F8B;gradientDirection=north;fillColor=#BC1356;strokeColor=#ffffff;dashed=0;verticalLabelPosition=bottom;verticalAlign=top;align=center;html=1;fontSize=12;fontStyle=0;aspect=fixed;shape=mxgraph.aws4.resourceIcon;resIcon=mxgraph.aws4.sqs;" parent="1" vertex="1">
          <mxGeometry x="219" y="1049" width="50" height="50" as="geometry" />
        </mxCell>
        <mxCell id="r3aRXXPwxVv9RhWIMnl7-9" style="edgeStyle=orthogonalEdgeStyle;rounded=0;orthogonalLoop=1;jettySize=auto;html=1;" parent="1" source="r3aRXXPwxVv9RhWIMnl7-7" target="r3aRXXPwxVv9RhWIMnl7-1" edge="1">
          <mxGeometry relative="1" as="geometry" />
        </mxCell>
        <mxCell id="r3aRXXPwxVv9RhWIMnl7-7" value="Event Bus" style="sketch=0;points=[[0,0,0],[0.25,0,0],[0.5,0,0],[0.75,0,0],[1,0,0],[0,1,0],[0.25,1,0],[0.5,1,0],[0.75,1,0],[1,1,0],[0,0.25,0],[0,0.5,0],[0,0.75,0],[1,0.25,0],[1,0.5,0],[1,0.75,0]];outlineConnect=0;fontColor=#232F3E;gradientColor=#FF4F8B;gradientDirection=north;fillColor=#BC1356;strokeColor=#ffffff;dashed=0;verticalLabelPosition=bottom;verticalAlign=top;align=center;html=1;fontSize=12;fontStyle=0;aspect=fixed;shape=mxgraph.aws4.resourceIcon;resIcon=mxgraph.aws4.eventbridge;" parent="1" vertex="1">
          <mxGeometry x="366" y="67" width="50" height="50" as="geometry" />
        </mxCell>
        <mxCell id="r3aRXXPwxVv9RhWIMnl7-15" style="edgeStyle=orthogonalEdgeStyle;rounded=0;orthogonalLoop=1;jettySize=auto;html=1;" parent="1" source="r3aRXXPwxVv9RhWIMnl7-10" target="r3aRXXPwxVv9RhWIMnl7-14" edge="1">
          <mxGeometry relative="1" as="geometry" />
        </mxCell>
        <mxCell id="r3aRXXPwxVv9RhWIMnl7-24" style="edgeStyle=orthogonalEdgeStyle;rounded=0;orthogonalLoop=1;jettySize=auto;html=1;entryX=0;entryY=0.75;entryDx=0;entryDy=0;entryPerimeter=0;" parent="1" source="r3aRXXPwxVv9RhWIMnl7-10" target="r3aRXXPwxVv9RhWIMnl7-13" edge="1">
          <mxGeometry relative="1" as="geometry">
            <Array as="points">
              <mxPoint x="724" y="152" />
              <mxPoint x="978" y="152" />
              <mxPoint x="978" y="597" />
            </Array>
          </mxGeometry>
        </mxCell>
        <mxCell id="r3aRXXPwxVv9RhWIMnl7-10" value="Textract" style="sketch=0;points=[[0,0,0],[0.25,0,0],[0.5,0,0],[0.75,0,0],[1,0,0],[0,1,0],[0.25,1,0],[0.5,1,0],[0.75,1,0],[1,1,0],[0,0.25,0],[0,0.5,0],[0,0.75,0],[1,0.25,0],[1,0.5,0],[1,0.75,0]];outlineConnect=0;fontColor=#232F3E;gradientColor=#4AB29A;gradientDirection=north;fillColor=#116D5B;strokeColor=#ffffff;dashed=0;verticalLabelPosition=bottom;verticalAlign=top;align=center;html=1;fontSize=12;fontStyle=0;aspect=fixed;shape=mxgraph.aws4.resourceIcon;resIcon=mxgraph.aws4.textract;" parent="1" vertex="1">
          <mxGeometry x="710" y="190" width="50" height="50" as="geometry" />
        </mxCell>
        <mxCell id="7qidpuP8_tDN-BRGHvdU-5" style="edgeStyle=orthogonalEdgeStyle;rounded=0;orthogonalLoop=1;jettySize=auto;html=1;entryX=0.5;entryY=0;entryDx=0;entryDy=0;" parent="1" source="r3aRXXPwxVv9RhWIMnl7-12" target="7qidpuP8_tDN-BRGHvdU-4" edge="1">
          <mxGeometry relative="1" as="geometry">
            <Array as="points">
              <mxPoint x="556" y="446" />
              <mxPoint x="556" y="631" />
              <mxPoint x="366" y="631" />
            </Array>
          </mxGeometry>
        </mxCell>
        <mxCell id="r3aRXXPwxVv9RhWIMnl7-12" value="Restart" style="sketch=0;points=[[0,0,0],[0.25,0,0],[0.5,0,0],[0.75,0,0],[1,0,0],[0,1,0],[0.25,1,0],[0.5,1,0],[0.75,1,0],[1,1,0],[0,0.25,0],[0,0.5,0],[0,0.75,0],[1,0.25,0],[1,0.5,0],[1,0.75,0]];outlineConnect=0;fontColor=#232F3E;gradientColor=#F78E04;gradientDirection=north;fillColor=#D05C17;strokeColor=#ffffff;dashed=0;verticalLabelPosition=bottom;verticalAlign=top;align=center;html=1;fontSize=12;fontStyle=0;aspect=fixed;shape=mxgraph.aws4.resourceIcon;resIcon=mxgraph.aws4.lambda;" parent="1" vertex="1">
          <mxGeometry x="705" y="418" width="50" height="50" as="geometry" />
        </mxCell>
        <mxCell id="r3aRXXPwxVv9RhWIMnl7-13" value="Extract Data" style="sketch=0;points=[[0,0,0],[0.25,0,0],[0.5,0,0],[0.75,0,0],[1,0,0],[0,1,0],[0.25,1,0],[0.5,1,0],[0.75,1,0],[1,1,0],[0,0.25,0],[0,0.5,0],[0,0.75,0],[1,0.25,0],[1,0.5,0],[1,0.75,0]];outlineConnect=0;fontColor=#232F3E;gradientColor=#60A337;gradientDirection=north;fillColor=#277116;strokeColor=#ffffff;dashed=0;verticalLabelPosition=bottom;verticalAlign=top;align=center;html=1;fontSize=12;fontStyle=0;aspect=fixed;shape=mxgraph.aws4.resourceIcon;resIcon=mxgraph.aws4.s3;" parent="1" vertex="1">
          <mxGeometry x="773" y="556" width="54" height="54" as="geometry" />
        </mxCell>
        <mxCell id="r3aRXXPwxVv9RhWIMnl7-16" style="edgeStyle=orthogonalEdgeStyle;rounded=0;orthogonalLoop=1;jettySize=auto;html=1;" parent="1" source="r3aRXXPwxVv9RhWIMnl7-14" target="r3aRXXPwxVv9RhWIMnl7-12" edge="1">
          <mxGeometry relative="1" as="geometry">
            <Array as="points">
              <mxPoint x="776" y="439" />
              <mxPoint x="776" y="439" />
            </Array>
          </mxGeometry>
        </mxCell>
        <mxCell id="r3aRXXPwxVv9RhWIMnl7-14" value="Completion" style="sketch=0;points=[[0,0,0],[0.25,0,0],[0.5,0,0],[0.75,0,0],[1,0,0],[0,1,0],[0.25,1,0],[0.5,1,0],[0.75,1,0],[1,1,0],[0,0.25,0],[0,0.5,0],[0,0.75,0],[1,0.25,0],[1,0.5,0],[1,0.75,0]];outlineConnect=0;fontColor=#232F3E;gradientColor=#FF4F8B;gradientDirection=north;fillColor=#BC1356;strokeColor=#ffffff;dashed=0;verticalLabelPosition=bottom;verticalAlign=top;align=center;html=1;fontSize=12;fontStyle=0;aspect=fixed;shape=mxgraph.aws4.resourceIcon;resIcon=mxgraph.aws4.sns;" parent="1" vertex="1">
          <mxGeometry x="818" y="418" width="50" height="50" as="geometry" />
        </mxCell>
        <mxCell id="r3aRXXPwxVv9RhWIMnl7-27" style="edgeStyle=orthogonalEdgeStyle;rounded=0;orthogonalLoop=1;jettySize=auto;html=1;" parent="1" source="r3aRXXPwxVv9RhWIMnl7-26" target="r3aRXXPwxVv9RhWIMnl7-3" edge="1">
          <mxGeometry relative="1" as="geometry" />
        </mxCell>
        <mxCell id="r3aRXXPwxVv9RhWIMnl7-40" value="Add&lt;br&gt;Converted&lt;br&gt;File" style="edgeStyle=orthogonalEdgeStyle;rounded=0;orthogonalLoop=1;jettySize=auto;html=1;" parent="1" source="r3aRXXPwxVv9RhWIMnl7-28" target="r3aRXXPwxVv9RhWIMnl7-4" edge="1">
          <mxGeometry relative="1" as="geometry">
            <Array as="points">
              <mxPoint x="44" y="461" />
              <mxPoint x="44" y="92" />
            </Array>
          </mxGeometry>
        </mxCell>
        <mxCell id="r3aRXXPwxVv9RhWIMnl7-41" value="Uodate&amp;nbsp;&lt;br&gt;Data with&amp;nbsp;&lt;br&gt;File" style="edgeStyle=orthogonalEdgeStyle;rounded=0;orthogonalLoop=1;jettySize=auto;html=1;" parent="1" source="r3aRXXPwxVv9RhWIMnl7-28" target="r3aRXXPwxVv9RhWIMnl7-3" edge="1">
          <mxGeometry relative="1" as="geometry">
            <Array as="points">
              <mxPoint x="244" y="408" />
            </Array>
          </mxGeometry>
        </mxCell>
        <mxCell id="r3aRXXPwxVv9RhWIMnl7-42" style="edgeStyle=orthogonalEdgeStyle;rounded=0;orthogonalLoop=1;jettySize=auto;html=1;" parent="1" source="r3aRXXPwxVv9RhWIMnl7-34" target="r3aRXXPwxVv9RhWIMnl7-6" edge="1">
          <mxGeometry relative="1" as="geometry" />
        </mxCell>
        <mxCell id="r3aRXXPwxVv9RhWIMnl7-43" style="edgeStyle=orthogonalEdgeStyle;rounded=0;orthogonalLoop=1;jettySize=auto;html=1;" parent="1" source="r3aRXXPwxVv9RhWIMnl7-36" target="r3aRXXPwxVv9RhWIMnl7-10" edge="1">
          <mxGeometry relative="1" as="geometry">
            <Array as="points">
              <mxPoint x="474" y="572" />
              <mxPoint x="474" y="215" />
            </Array>
          </mxGeometry>
        </mxCell>
        <mxCell id="7qidpuP8_tDN-BRGHvdU-8" style="edgeStyle=orthogonalEdgeStyle;rounded=0;orthogonalLoop=1;jettySize=auto;html=1;" parent="1" source="7qidpuP8_tDN-BRGHvdU-7" target="r3aRXXPwxVv9RhWIMnl7-3" edge="1">
          <mxGeometry relative="1" as="geometry" />
        </mxCell>
        <mxCell id="7qidpuP8_tDN-BRGHvdU-11" style="edgeStyle=orthogonalEdgeStyle;rounded=0;orthogonalLoop=1;jettySize=auto;html=1;" parent="1" source="7qidpuP8_tDN-BRGHvdU-7" target="r3aRXXPwxVv9RhWIMnl7-5" edge="1">
          <mxGeometry relative="1" as="geometry">
            <Array as="points">
              <mxPoint x="698" y="770" />
            </Array>
          </mxGeometry>
        </mxCell>
      </root>
    </mxGraphModel>
  </diagram>
</mxfile>
